<?xml version="1.0" standalone="no"?>
<!DOCTYPE svg PUBLIC "-//W3C//DTD SVG 20010904//EN"
 "http://www.w3.org/TR/2001/REC-SVG-20010904/DTD/svg10.dtd">
<svg version="1.0" xmlns="http://www.w3.org/2000/svg"
 width="700.000000pt" height="700.000000pt" viewBox="0 0 700.000000 700.000000"
 preserveAspectRatio="xMidYMid meet">
<metadata>
Created by potrace 1.14, written by Peter Selinger 2001-2017
</metadata>
<g transform="translate(0.000000,700.000000) scale(0.100000,-0.100000)"
fill="#000000" stroke="none">
<path d="M3461 6469 c-61 -13 -116 -68 -130 -130 -4 -19 -7 -625 -6 -1346 0
-722 -2 -1314 -5 -1314 -3 -1 -599 -2 -1325 -3 -1014 -1 -1328 -5 -1356 -14
-149 -51 -147 -274 3 -325 25 -9 376 -12 1356 -12 727 0 1323 -2 1323 -5 1 -3
2 -603 3 -1335 2 -1201 3 -1333 18 -1360 70 -130 246 -131 315 -1 16 28 17
139 18 1366 l0 1335 1335 0 c1207 1 1338 2 1365 17 103 55 131 182 59 268 -59
69 56 64 -1424 65 l-1335 0 0 1335 c-1 1227 -2 1338 -18 1366 -21 40 -71 82
-105 90 -50 10 -57 10 -91 3z"/>
<path d="M5883 6460 c-45 -20 -90 -70 -99 -108 -3 -15 -7 -32 -9 -39 -2 -7 2
-34 9 -61 l12 -49 -75 24 c-68 21 -212 58 -266 69 -11 2 -31 6 -45 9 -230 46
-456 12 -663 -98 -249 -132 -460 -366 -589 -652 -36 -80 -86 -228 -93 -275 -2
-14 -7 -36 -10 -50 -30 -137 -22 -336 18 -446 107 -296 447 -571 872 -707 104
-34 195 -49 305 -50 69 -1 241 11 262 18 7 2 31 7 52 10 54 8 205 59 268 91
134 68 266 182 341 297 64 97 133 259 153 362 27 139 37 242 36 377 0 116 -6
184 -27 358 -3 22 -1 40 3 40 8 -1 62 -32 173 -99 112 -68 181 -72 249 -14 81
68 85 191 8 259 -53 48 -239 156 -438 256 l-105 53 -32 100 c-78 240 -102 289
-162 319 -43 23 -106 25 -148 6z m-473 -514 c131 -29 213 -52 320 -91 41 -15
89 -31 105 -36 52 -17 98 -44 101 -59 1 -8 12 -58 23 -110 17 -84 28 -153 46
-295 6 -52 7 -303 1 -335 -3 -14 -7 -45 -10 -70 -12 -100 -62 -236 -114 -313
-104 -151 -266 -232 -512 -256 -180 -18 -315 11 -525 114 -161 78 -290 178
-374 289 -62 81 -85 150 -83 241 7 374 260 763 583 901 134 57 249 62 439 20z"/>
<path d="M645 2965 c-70 -25 -117 -88 -117 -159 0 -23 14 -124 31 -226 17
-102 34 -201 37 -220 3 -19 9 -57 14 -85 6 -27 12 -68 15 -90 3 -22 10 -62 15
-90 5 -27 12 -66 15 -85 3 -19 7 -46 10 -60 2 -14 7 -43 10 -65 3 -22 7 -47
10 -55 2 -8 6 -32 9 -52 14 -89 18 -114 22 -138 12 -67 65 -389 70 -420 3 -19
9 -57 14 -85 5 -27 12 -66 15 -85 3 -19 7 -46 10 -60 2 -14 7 -43 10 -65 3
-22 7 -47 10 -55 2 -8 6 -33 10 -55 24 -170 35 -204 77 -241 37 -34 67 -46
117 -47 78 -1 105 20 246 193 38 47 72 87 75 90 3 3 25 30 50 60 25 30 47 57
50 60 3 3 70 84 150 180 80 96 147 177 150 180 3 3 47 56 99 118 l93 112 81
-67 c45 -37 87 -72 93 -78 6 -5 31 -26 55 -46 24 -20 148 -123 274 -229 127
-105 242 -197 256 -205 82 -44 191 -7 236 79 22 42 20 117 -3 157 -20 34 -86
93 -323 288 -24 20 -121 101 -215 180 -94 79 -183 153 -198 164 -34 25 -34 27
-5 59 27 31 45 52 127 153 36 44 70 85 76 90 6 6 42 48 80 95 38 47 71 87 74
90 3 3 35 41 70 85 36 44 70 85 75 91 6 6 29 33 51 60 202 239 206 245 206
314 0 98 -72 171 -171 173 -81 1 -99 -14 -271 -223 -52 -63 -97 -117 -100
-120 -3 -3 -35 -41 -70 -85 -36 -44 -77 -93 -91 -110 -15 -16 -53 -62 -85
-101 -94 -113 -130 -157 -158 -189 -15 -16 -43 -51 -64 -77 -20 -26 -40 -47
-45 -48 -4 0 -254 206 -555 457 -301 251 -560 464 -577 474 -41 24 -95 29
-140 14z m580 -831 c132 -109 242 -201 245 -204 3 -3 43 -37 90 -75 127 -104
130 -107 122 -120 -4 -7 -25 -34 -47 -60 -22 -26 -114 -136 -204 -244 -89
-108 -173 -207 -185 -221 -11 -14 -34 -41 -50 -60 -27 -33 -40 -40 -42 -22 -1
11 -16 114 -20 137 -2 11 -6 31 -9 45 -2 14 -7 39 -9 55 -3 17 -12 73 -21 125
-9 52 -18 110 -21 129 -3 18 -8 43 -10 55 -2 11 -7 41 -10 66 -3 25 -8 54 -10
65 -2 11 -13 74 -24 140 -11 66 -22 132 -25 148 -3 15 -7 39 -10 55 -3 15 -8
47 -11 72 -3 25 -10 63 -15 85 -12 56 -11 60 9 43 9 -8 125 -104 257 -214z"/>
</g>
</svg>
